<svg xmlns="http://www.w3.org/2000/svg" viewBox="0 0 571.08 595.18"><defs><style>.cls-1{fill:#b3b1b1;stroke:#9b9a9a;stroke-width:3px;}.cls-1,.cls-2{stroke-miterlimit:10;}.cls-2{fill:none;stroke:#787677;stroke-width:25px;}</style></defs><title>Asset 1</title><g id="Layer_2" data-name="Layer 2"><g id="Layer_1-2" data-name="Layer 1"><polygon class="cls-1" points="172.4 101.02 229.28 199.55 172.4 298.08 58.62 298.08 1.73 199.55 58.62 101.02 172.4 101.02"/><polygon class="cls-1" points="512.46 101.02 569.34 199.55 512.46 298.08 398.68 298.08 341.79 199.55 398.68 101.02 512.46 101.02"/><polygon class="cls-1" points="512.46 297.68 569.34 396.21 512.46 494.74 398.68 494.74 341.79 396.21 398.68 297.68 512.46 297.68"/><polygon class="cls-1" points="342.41 1.5 399.3 100.03 342.41 198.57 228.63 198.57 171.74 100.03 228.63 1.5 342.41 1.5"/><polygon class="cls-1" points="172.4 298.08 229.28 396.62 172.4 495.15 58.62 495.15 1.73 396.62 58.62 298.08 172.4 298.08"/><polygon class="cls-1" points="341.46 396.62 398.35 495.15 341.46 593.68 227.68 593.68 170.79 495.15 227.68 396.62 341.46 396.62"/><polygon class="cls-2" points="342.41 198.57 399.3 296.9 342.41 395.23 228.63 395.23 171.74 296.9 228.63 198.57 342.41 198.57"/></g></g></svg>